<svg width="342" height="54" viewBox="0 0 342 54" fill="none" xmlns="http://www.w3.org/2000/svg">
<path d="M12.1196 40C9.65822 40 7.52947 39.5842 5.73334 38.7527C3.97047 37.8879 2.60674 36.7237 1.64215 35.2602C0.710828 33.7967 0.245164 32.1336 0.245164 30.271C0.245164 29.5725 0.36158 29.0569 0.594412 28.7243C0.827243 28.3917 1.25965 28.2254 1.89162 28.2254C2.02466 28.2254 2.29076 28.2919 2.6899 28.4249C3.08904 28.5247 3.38839 28.7243 3.58796 29.0236C3.95384 30.1213 4.41951 31.2355 4.98495 32.3664C5.58366 33.4973 6.39858 34.4453 7.42969 35.2103C8.49406 35.9753 9.87442 36.3578 11.5708 36.3578C13.2006 36.3578 14.6641 36.1749 15.9613 35.809C17.2585 35.4099 18.273 34.7945 19.0048 33.963C19.7698 33.0982 20.1523 31.9673 20.1523 30.5703C20.1523 29.5059 19.8363 28.6079 19.2043 27.8761C18.6056 27.1111 17.9237 26.5124 17.1587 26.08C15.03 24.9158 13.1507 23.9346 11.5209 23.1363C9.89105 22.338 8.51069 21.573 7.3798 20.8413C6.28216 20.0763 5.43399 19.1782 4.83528 18.1471C4.26983 17.0827 3.9871 15.719 3.9871 14.0559C3.9871 11.528 4.98495 9.58219 6.98066 8.21846C9.00962 6.85473 11.6373 6.17286 14.8637 6.17286C15.6287 6.17286 16.5268 6.27265 17.5579 6.47222C18.6222 6.63853 19.6534 6.90462 20.6512 7.2705C21.6823 7.63638 22.5305 8.11867 23.1957 8.71738C23.861 9.31609 24.1936 10.0479 24.1936 10.9127C24.1936 11.3783 24.0106 11.7941 23.6448 12.16C23.2789 12.5258 22.8465 12.7088 22.3476 12.7088C21.6158 12.7088 21.0005 12.5757 20.5015 12.3096C20.0359 12.0103 19.5203 11.6777 18.9549 11.3118C18.3229 10.8794 17.5911 10.4803 16.7596 10.1144C15.9613 9.7485 14.9302 9.56556 13.6663 9.56556C12.7017 9.56556 11.7703 9.7485 10.8723 10.1144C9.97421 10.447 9.22582 10.9293 8.62711 11.5613C8.06166 12.1932 7.77894 12.925 7.77894 13.7565C7.77894 14.8209 8.07829 15.7356 8.677 16.5006C9.27571 17.2656 9.99084 17.9309 10.8224 18.4963C11.2215 18.7292 11.6539 18.9786 12.1196 19.2447C12.5853 19.4775 13.0675 19.727 13.5665 19.9931C14.0321 20.2259 14.5144 20.4588 15.0134 20.6916C15.5455 20.9244 16.0611 21.1739 16.56 21.44C17.957 22.1052 19.221 22.837 20.3519 23.6353C21.516 24.4335 22.4473 25.3815 23.1458 26.4791C23.8443 27.5768 24.1936 28.9405 24.1936 30.5703C24.1936 32.566 23.6115 34.279 22.4473 35.7092C21.2832 37.1062 19.7864 38.1706 17.957 38.9024C16.1276 39.6341 14.1818 40 12.1196 40ZM31.6767 40.4989C31.211 40.4989 30.8285 40.3326 30.5291 40C30.2298 39.6674 30.0801 39.3015 30.0801 38.9024V37.9544L31.976 18.6959V6.67179C31.976 6.10634 31.9927 5.44111 32.0259 4.67609C32.0592 3.91107 32.2089 3.22921 32.475 2.6305C32.7743 2.03178 33.3065 1.73243 34.0715 1.73243C34.8365 1.73243 35.3687 2.18146 35.6681 3.07953C35.8344 3.57845 35.9175 4.12727 35.9175 4.72598C35.9508 5.29143 35.9674 5.85688 35.9674 6.42233C35.9674 8.6176 35.8843 10.9625 35.718 13.4572C35.5517 15.9185 35.4685 18.5296 35.4685 21.2903C36.7657 20.8912 38.0629 20.4754 39.3601 20.043C40.6573 19.6106 41.8049 19.2114 42.8027 18.8456C43.8338 18.4797 44.5656 18.2136 44.998 18.0473C45.3971 17.8477 45.8794 17.5983 46.4449 17.2989C47.0436 16.9995 47.6589 16.7168 48.2909 16.4507C48.9229 16.1846 49.5049 15.9684 50.0371 15.8021C50.6026 15.6026 51.0849 15.5028 51.484 15.5028C51.9497 15.5028 52.3322 15.6691 52.6315 16.0017C52.9309 16.3343 53.0806 16.7833 53.0806 17.3488C53.0806 17.881 52.7812 18.2801 52.1825 18.5462C51.5838 18.8123 51.035 19.0451 50.5361 19.2447C50.27 19.3778 49.6047 19.6605 48.5404 20.0929C47.476 20.5253 46.2287 21.0242 44.7984 21.5897C43.4014 22.1218 42.0044 22.654 40.6074 23.1862C39.2105 23.7184 38.0297 24.1508 37.0651 24.4834C37.1649 24.5832 37.564 24.8826 38.2625 25.3815C38.9942 25.8804 39.9089 26.5124 41.0066 27.2774C42.1042 28.0092 43.2684 28.7908 44.4991 29.6224C45.7297 30.4206 46.9272 31.2023 48.0913 31.9673C49.2555 32.6991 50.2533 33.331 51.0849 33.8632C51.9164 34.3621 52.4652 34.6948 52.7313 34.8611C53.0972 35.1272 53.4631 35.3933 53.829 35.6593C54.1948 35.8922 54.5441 36.1583 54.8767 36.4576C55.4754 36.9566 55.7748 37.4389 55.7748 37.9045C55.7748 38.47 55.6251 38.919 55.3257 39.2516C55.0264 39.551 54.727 39.7006 54.4277 39.7006C53.4963 39.7006 52.4153 39.235 51.1847 38.3037C50.5527 37.8713 49.954 37.4222 49.3885 36.9566C48.8231 36.4909 48.3075 36.0918 47.8419 35.7591C47.5425 35.5596 47.0103 35.2103 46.2453 34.7114C45.5135 34.2125 44.6321 33.6304 43.601 32.9652C42.5699 32.2999 41.5055 31.6181 40.4079 30.9196C39.3102 30.1878 38.2625 29.4893 37.2646 28.8241C36.2668 28.1588 35.4186 27.5934 34.7201 27.1277L33.2732 39.0021C33.1735 39.4678 32.9573 39.8337 32.6246 40.0998C32.3253 40.3659 32.0093 40.4989 31.6767 40.4989ZM66.9764 53.0718C66.8766 53.0718 66.727 52.9388 66.5274 52.6727C66.3278 52.4066 66.228 52.0075 66.228 51.4753C66.228 51.0096 66.2779 50.544 66.3777 50.0783C66.5108 49.6126 66.6771 49.147 66.8766 48.6813C67.1095 48.1824 67.3423 47.6834 67.5751 47.1845C67.808 46.6856 68.0408 46.1867 68.2736 45.6877C68.4732 45.1888 68.706 44.5569 68.9721 43.7918C69.2715 43.0268 69.5542 42.2452 69.8203 41.4469C70.0864 40.6819 70.3026 40.0166 70.4689 39.4512C70.6685 38.8857 70.7683 38.5697 70.7683 38.5032V37.206C68.706 37.206 66.993 36.8235 65.6293 36.0585C64.2656 35.2935 63.1846 34.279 62.3863 33.015C61.588 31.7511 61.0059 30.3541 60.6401 28.8241C60.2742 27.2608 60.0247 25.6808 59.8917 24.0843C59.7919 22.4545 59.742 20.9411 59.742 19.5441C59.742 18.8788 59.7586 18.2302 59.7919 17.5983C59.8252 16.9663 59.9083 16.3343 60.0414 15.7023C60.2077 14.9373 60.4072 14.4384 60.6401 14.2056C60.9062 13.9395 61.1556 13.8064 61.3885 13.8064C62.1535 13.8064 62.6857 14.1058 62.985 14.7045C63.3176 15.2699 63.4839 16.1015 63.4839 17.1991C63.4839 17.9641 63.434 18.6959 63.3343 19.3944C63.2345 20.0596 63.1846 20.7914 63.1846 21.5897V22.0886C63.1846 22.3879 63.2345 22.97 63.3343 23.8348C63.4673 24.6664 63.6004 25.5145 63.7334 26.3793C63.8665 27.2441 63.9662 27.8927 64.0328 28.3251C64.1991 29.0569 64.4485 29.8386 64.7811 30.6701C65.1138 31.4684 65.5794 32.1502 66.1781 32.7157C66.8101 33.2811 67.6084 33.5639 68.573 33.5639C69.8702 33.5639 71.0177 33.0982 72.0156 32.1669C73.0467 31.2023 73.978 29.9716 74.8095 28.4748C75.6744 26.9448 76.456 25.3482 77.1545 23.6851C77.4206 23.1197 77.6701 22.5542 77.9029 21.9888C78.1357 21.4233 78.3685 20.8745 78.6014 20.3423C78.8675 19.8102 79.1169 19.3112 79.3498 18.8456C79.5826 18.3799 79.8321 17.9309 80.0982 17.4985C80.6303 16.6337 81.1126 16.0183 81.545 15.6524C82.0107 15.2866 82.4597 15.1036 82.8921 15.1036C83.3245 15.1036 83.6405 15.22 83.8401 15.4529C84.0729 15.6857 84.1893 16.0848 84.1893 16.6503C84.1893 17.6814 84.0064 18.6959 83.6405 19.6937C83.3079 20.6916 82.8755 21.6894 82.3433 22.6873C81.7779 23.7184 81.1792 24.7329 80.5472 25.7307C79.9152 26.7286 79.3664 27.7264 78.9007 28.7243C78.6346 29.323 78.2688 30.1379 77.8031 31.169C77.3707 32.1669 76.905 33.2146 76.4061 34.3123C75.9404 35.3766 75.5247 36.3246 75.1588 37.1561C74.8262 37.9877 74.6266 38.5032 74.5601 38.7028C74.5268 38.8691 74.3938 39.2516 74.1609 39.8503C73.9281 40.4158 73.662 41.0976 73.3627 41.8959C73.0966 42.6942 72.8138 43.4925 72.5145 44.2908C72.2151 45.1223 71.949 45.8208 71.7162 46.3862C71.5166 46.985 71.3836 47.3675 71.3171 47.5338C71.1175 48.1325 70.8348 48.8642 70.4689 49.729C70.103 50.5938 69.6374 51.3589 69.0719 52.0241C68.5397 52.7226 67.8412 53.0718 66.9764 53.0718ZM230.08 40.2495C229.615 40.2495 229.165 39.9834 228.733 39.4512C228.334 38.919 228.068 38.287 227.935 37.5553V35.0107C227.935 33.3144 228.101 31.6181 228.434 29.9217C228.8 28.1921 228.983 26.4958 228.983 24.8327V23.8348C227.685 22.5376 226.538 21.3069 225.54 20.1428C224.575 18.9454 223.711 17.7147 222.946 16.4507C222.214 15.1868 221.532 13.7399 220.9 12.1101C220.567 11.2453 220.218 10.3306 219.852 9.36599C219.52 8.4014 219.353 7.45344 219.353 6.52211C219.353 5.95666 219.52 5.50763 219.852 5.17501C220.185 4.8424 220.567 4.67609 221 4.67609C222.097 4.67609 222.929 5.34132 223.494 6.67179C223.661 7.00441 223.794 7.35365 223.893 7.71953C223.993 8.08541 224.093 8.45129 224.193 8.81717C224.293 9.24957 224.376 9.64871 224.442 10.0146C224.542 10.3805 224.659 10.7131 224.792 11.0124C224.925 11.3451 225.157 11.8772 225.49 12.609C225.823 13.3075 226.222 14.0891 226.687 14.9539C227.153 15.8188 227.652 16.6503 228.184 17.4486C228.75 18.2136 229.315 18.8456 229.881 19.3445C230.446 19.8434 230.962 20.0929 231.427 20.0929C232.591 20.0929 233.789 19.2114 235.02 17.4486C235.485 16.7833 235.951 16.0183 236.417 15.1535C236.882 14.2887 237.364 13.4073 237.863 12.5092C238.462 11.4448 239.028 10.4137 239.56 9.41588C240.125 8.41803 240.707 7.60312 241.306 6.97114C241.905 6.30591 242.537 5.97329 243.202 5.97329C243.701 5.97329 244.05 6.1396 244.25 6.47222C244.482 6.80483 244.599 7.22061 244.599 7.71953C244.599 8.28498 244.482 8.93358 244.25 9.66534C244.05 10.3638 243.767 11.0291 243.401 11.661C243.036 12.293 242.636 12.925 242.204 13.557C241.772 14.1889 241.356 14.7876 240.957 15.3531C239.693 17.0827 238.529 18.6127 237.464 19.9432C236.4 21.2737 235.186 22.5709 233.822 23.8348C233.589 24.7994 233.29 26.0966 232.924 27.7264C232.591 29.3563 232.309 31.352 232.076 33.7135C231.976 34.8112 231.876 35.8589 231.777 36.8568C231.71 37.8546 231.56 38.6695 231.327 39.3015C231.095 39.9335 230.679 40.2495 230.08 40.2495ZM258.063 40.4989C256.566 40.4989 255.169 40.1663 253.872 39.5011C252.608 38.8358 251.544 37.9378 250.679 36.8069C249.814 35.676 249.249 34.412 248.983 33.015V30.3707C248.983 28.4748 249.332 26.5623 250.031 24.6331C250.729 22.7039 251.694 20.9244 252.924 19.2946C254.188 17.6648 255.668 16.3676 257.365 15.403C259.094 14.4051 260.957 13.9062 262.953 13.9062C264.217 13.9062 265.431 14.1224 266.595 14.5548C267.792 14.9872 268.857 15.4861 269.788 16.0516C269.988 14.6546 270.237 13.69 270.536 13.1578C270.836 12.6256 271.351 12.3595 272.083 12.3595C272.648 12.3595 273.048 12.5425 273.28 12.9084C273.513 13.241 273.63 13.8397 273.63 14.7045C273.63 16.7002 273.58 18.6626 273.48 20.5918C273.414 22.4877 273.38 24.4335 273.38 26.4292C273.38 28.0258 273.463 29.6722 273.63 31.3686C273.829 33.0649 273.929 34.6948 273.929 36.2581C273.929 36.757 273.929 37.2559 273.929 37.7548C273.962 38.2538 273.879 38.6695 273.68 39.0021C273.513 39.3015 273.147 39.4512 272.582 39.4512C271.784 39.4512 271.185 39.0853 270.786 38.3535C270.42 37.5885 270.17 36.6738 270.037 35.6095C269.904 34.5451 269.771 33.5472 269.638 32.6159C269.306 33.514 268.74 34.3954 267.942 35.2602C267.177 36.125 266.395 36.8734 265.597 37.5054C264.832 38.1041 264.233 38.5365 263.801 38.8026C263.402 39.0354 263.402 39.0021 263.801 38.7028C263.069 39.235 262.154 39.6674 261.057 40C259.992 40.3326 258.995 40.4989 258.063 40.4989ZM257.564 37.3557C259.061 37.3557 260.458 36.9233 261.755 36.0585C263.052 35.1937 264.183 34.0794 265.148 32.7157C266.146 31.352 266.911 29.9217 267.443 28.4249C268.008 26.9282 268.291 25.5478 268.291 24.2839C268.291 23.6519 268.208 22.9368 268.042 22.1385C267.909 21.3069 267.643 20.5087 267.243 19.7436C266.844 18.9786 266.296 18.3466 265.597 17.8477C264.932 17.3488 264.05 17.0993 262.953 17.0993C261.522 17.0993 260.159 17.565 258.862 18.4963C257.564 19.3944 256.4 20.5585 255.369 21.9888C254.371 23.3858 253.59 24.8327 253.024 26.3294C252.459 27.8262 252.176 29.1733 252.176 30.3707C252.176 31.2688 252.326 32.2667 252.625 33.3643C252.958 34.4619 253.506 35.4099 254.271 36.2082C255.07 36.9732 256.167 37.3557 257.564 37.3557ZM283.926 40.2495C283.294 40.2495 282.812 40 282.479 39.5011C282.147 39.0021 281.914 38.3868 281.781 37.6551C281.648 36.9233 281.565 36.1915 281.531 35.4598C281.531 34.728 281.531 34.1459 281.531 33.7135C281.531 33.4474 281.515 33.1481 281.482 32.8155C281.482 32.4829 281.482 32.1502 281.482 31.8176C281.482 30.1545 281.531 28.1422 281.631 25.7806C281.731 23.3858 281.864 20.8745 282.03 18.2469C282.23 15.5859 282.446 12.9915 282.679 10.4636C282.945 7.93573 283.228 5.69057 283.527 3.72813C283.793 2.76354 284.142 2.06505 284.575 1.63264C285.041 1.20024 285.49 0.984039 285.922 0.984039C286.321 0.984039 286.67 1.16698 286.97 1.53286C287.302 1.89874 287.469 2.41429 287.469 3.07953C287.469 3.21257 287.469 3.32899 287.469 3.42877C287.469 3.52856 287.452 3.64498 287.419 3.77802C286.587 7.80269 286.055 12.0103 285.822 16.4008C285.589 20.7914 285.473 25.0156 285.473 29.0735C285.473 30.7366 285.49 32.2168 285.523 33.514C285.589 34.7779 285.623 36.0918 285.623 37.4555C285.623 38.1872 285.456 38.8358 285.124 39.4013C284.824 39.9667 284.425 40.2495 283.926 40.2495ZM300.927 40.9979C300.095 40.9979 299.48 40.7318 299.081 40.1996C298.682 39.6674 298.416 39.0021 298.282 38.2039C298.183 37.4056 298.133 36.6239 298.133 35.8589C298.133 35.493 298.133 35.1438 298.133 34.8112C298.166 34.4786 298.183 34.1958 298.183 33.963C298.183 31.5682 298.233 29.1567 298.332 26.7286C298.432 24.2672 298.482 21.5897 298.482 18.6959C297.251 18.6959 296.237 18.7458 295.439 18.8456C294.64 18.9454 293.842 18.9952 293.044 18.9952C292.512 18.9952 292.146 18.8955 291.946 18.6959C291.747 18.4963 291.647 18.1637 291.647 17.698C291.647 17.1659 291.713 16.7833 291.846 16.5505C292.013 16.2844 292.212 16.1181 292.445 16.0516L297.334 15.0537C298.066 14.8874 298.582 14.5548 298.881 14.0559C299.214 13.557 299.447 13.0747 299.58 12.609C299.646 12.3429 299.679 12.0934 299.679 11.8606C299.713 11.5945 299.746 11.3118 299.779 11.0124C299.779 10.7463 299.779 10.4969 299.779 10.2641C299.812 9.99796 299.829 9.7485 299.829 9.51566C299.896 8.45129 300.062 7.66964 300.328 7.17071C300.627 6.67179 301.193 6.42233 302.024 6.42233C302.789 6.42233 303.238 6.72168 303.371 7.32039C303.538 7.9191 303.621 8.48455 303.621 9.01674C303.621 9.38262 303.588 9.94807 303.521 10.7131C303.488 11.4448 303.455 12.1766 303.421 12.9084C303.388 13.6401 303.355 14.1723 303.322 14.5049H311.304C311.604 14.5049 311.903 14.7045 312.202 15.1036C312.502 15.5028 312.652 16.0183 312.652 16.6503C312.652 16.8499 312.568 17.116 312.402 17.4486C312.236 17.7479 312.036 17.8976 311.803 17.8976C311.471 17.8976 310.839 17.9142 309.907 17.9475C309.009 17.9475 308.028 17.9641 306.964 17.9974C305.933 18.0307 305.018 18.0639 304.22 18.0972C303.421 18.1304 302.972 18.1803 302.873 18.2469C302.706 20.2426 302.573 22.1717 302.473 24.0344C302.407 25.8638 302.374 27.6433 302.374 29.3729C302.374 30.5038 302.39 31.6014 302.424 32.6658C302.49 33.6969 302.54 34.728 302.573 35.7591C302.573 35.9254 302.59 36.1749 302.623 36.5075C302.656 36.8401 302.673 37.206 302.673 37.6052C302.673 38.3702 302.557 39.1352 302.324 39.9002C302.124 40.632 301.659 40.9979 300.927 40.9979ZM325.691 40.4989C324.194 40.4989 322.797 40.1663 321.5 39.5011C320.236 38.8358 319.172 37.9378 318.307 36.8069C317.442 35.676 316.877 34.412 316.611 33.015V30.3707C316.611 28.4748 316.96 26.5623 317.658 24.6331C318.357 22.7039 319.321 20.9244 320.552 19.2946C321.816 17.6648 323.296 16.3676 324.993 15.403C326.722 14.4051 328.585 13.9062 330.58 13.9062C331.844 13.9062 333.058 14.1224 334.223 14.5548C335.42 14.9872 336.484 15.4861 337.416 16.0516C337.615 14.6546 337.865 13.69 338.164 13.1578C338.463 12.6256 338.979 12.3595 339.711 12.3595C340.276 12.3595 340.675 12.5425 340.908 12.9084C341.141 13.241 341.257 13.8397 341.257 14.7045C341.257 16.7002 341.208 18.6626 341.108 20.5918C341.041 22.4877 341.008 24.4335 341.008 26.4292C341.008 28.0258 341.091 29.6722 341.257 31.3686C341.457 33.0649 341.557 34.6948 341.557 36.2581C341.557 36.757 341.557 37.2559 341.557 37.7548C341.59 38.2538 341.507 38.6695 341.307 39.0021C341.141 39.3015 340.775 39.4512 340.21 39.4512C339.411 39.4512 338.813 39.0853 338.414 38.3535C338.048 37.5885 337.798 36.6738 337.665 35.6095C337.532 34.5451 337.399 33.5472 337.266 32.6159C336.933 33.514 336.368 34.3954 335.57 35.2602C334.805 36.125 334.023 36.8734 333.225 37.5054C332.46 38.1041 331.861 38.5365 331.429 38.8026C331.03 39.0354 331.03 39.0021 331.429 38.7028C330.697 39.235 329.782 39.6674 328.685 40C327.62 40.3326 326.622 40.4989 325.691 40.4989ZM325.192 37.3557C326.689 37.3557 328.086 36.9233 329.383 36.0585C330.68 35.1937 331.811 34.0794 332.776 32.7157C333.774 31.352 334.539 29.9217 335.071 28.4249C335.636 26.9282 335.919 25.5478 335.919 24.2839C335.919 23.6519 335.836 22.9368 335.67 22.1385C335.536 21.3069 335.27 20.5087 334.871 19.7436C334.472 18.9786 333.923 18.3466 333.225 17.8477C332.56 17.3488 331.678 17.0993 330.58 17.0993C329.15 17.0993 327.786 17.565 326.489 18.4963C325.192 19.3944 324.028 20.5585 322.997 21.9888C321.999 23.3858 321.217 24.8327 320.652 26.3294C320.086 27.8262 319.804 29.1733 319.804 30.3707C319.804 31.2688 319.953 32.2667 320.253 33.3643C320.585 34.4619 321.134 35.4099 321.899 36.2082C322.697 36.9732 323.795 37.3557 325.192 37.3557Z" fill="#2F80ED"/>
<path d="M95.0211 40.4989C94.2228 40.4989 93.6075 40.1996 93.1751 39.6009C92.7759 39.0021 92.4932 38.2704 92.3269 37.4056C92.1938 36.5408 92.1107 35.6926 92.0774 34.8611C92.0774 34.0295 92.0774 33.3976 92.0774 32.9652V27.4271C92.0774 24.9325 92.2105 22.3547 92.4766 19.6937C92.7427 17.0328 92.8757 14.2056 92.8757 11.212C91.1461 11.212 89.9986 11.0623 89.4331 10.763C88.9009 10.4636 88.6348 9.81502 88.6348 8.81717C88.6348 8.25172 88.9342 7.75279 89.5329 7.32039C90.1316 6.88799 90.9632 6.60527 92.0275 6.47222C92.3269 6.37243 92.8923 6.27265 93.7239 6.17286C94.5887 6.07308 95.5533 5.98992 96.6177 5.9234C97.682 5.82362 98.6965 5.75709 99.6611 5.72383C100.659 5.65731 101.441 5.62405 102.006 5.62405C105.299 5.62405 107.993 5.90677 110.089 6.47222C112.184 7.00441 113.731 7.9191 114.729 9.21631C115.76 10.5135 116.275 12.3096 116.275 14.6047C116.275 16.2345 115.843 17.7978 114.978 19.2946C114.147 20.7581 113.016 22.072 111.585 23.2361C110.155 24.4003 108.542 25.3482 106.746 26.08C104.95 26.8117 103.12 27.2608 101.258 27.4271C100.925 27.4603 100.576 27.4936 100.21 27.5269C99.844 27.5269 99.4449 27.5269 99.0125 27.5269C98.0146 27.5269 97.0334 27.477 96.0688 27.3772C96.0688 29.2066 96.1021 30.7865 96.1686 32.117C96.2684 33.4142 96.3183 34.6449 96.3183 35.809V37.3557C96.3183 37.9211 96.2684 38.4866 96.1686 39.052C96.0356 39.6175 95.8693 40 95.6697 40.1996C95.5034 40.3991 95.2872 40.4989 95.0211 40.4989ZM102.156 23.2361C102.921 23.2361 103.885 22.9866 105.049 22.4877C106.214 21.9555 107.378 21.2737 108.542 20.4421C109.706 19.5773 110.671 18.6294 111.436 17.5983C112.234 16.5671 112.633 15.5527 112.633 14.5548C112.633 13.1911 112.284 12.1932 111.585 11.5613C110.887 10.896 110.022 10.447 108.991 10.2142C107.993 9.98133 106.979 9.78176 105.948 9.61545C105.415 9.51566 104.817 9.44914 104.151 9.41588C103.519 9.38262 102.871 9.36599 102.206 9.36599C100.576 9.36599 99.262 9.44914 98.2641 9.61545C98.0313 9.64871 97.7984 9.76513 97.5656 9.96469C97.3328 10.131 97.1831 10.4137 97.1166 10.8129C96.9503 12.0436 96.8006 13.4073 96.6675 14.9041C96.5345 16.4008 96.4181 17.881 96.3183 19.3445C96.2185 20.7747 96.1354 22.072 96.0688 23.2361H102.156ZM125.284 40.2495C124.652 40.2495 124.169 40 123.837 39.5011C123.504 39.0021 123.271 38.3868 123.138 37.6551C123.005 36.9233 122.922 36.1915 122.889 35.4598C122.889 34.728 122.889 34.1459 122.889 33.7135C122.889 33.4474 122.872 33.1481 122.839 32.8155C122.839 32.4829 122.839 32.1502 122.839 31.8176C122.839 30.1545 122.889 28.1422 122.989 25.7806C123.088 23.3858 123.221 20.8745 123.388 18.2469C123.587 15.5859 123.803 12.9915 124.036 10.4636C124.302 7.93573 124.585 5.69057 124.884 3.72813C125.151 2.76354 125.5 2.06505 125.932 1.63264C126.398 1.20024 126.847 0.984039 127.279 0.984039C127.678 0.984039 128.028 1.16698 128.327 1.53286C128.66 1.89874 128.826 2.41429 128.826 3.07953C128.826 3.21257 128.826 3.32899 128.826 3.42877C128.826 3.52856 128.809 3.64498 128.776 3.77802C127.945 7.80269 127.412 12.0103 127.18 16.4008C126.947 20.7914 126.83 25.0156 126.83 29.0735C126.83 30.7366 126.847 32.2168 126.88 33.514C126.947 34.7779 126.98 36.0918 126.98 37.4555C126.98 38.1872 126.814 38.8358 126.481 39.4013C126.182 39.9667 125.783 40.2495 125.284 40.2495ZM142.833 40.4989C141.336 40.4989 139.939 40.1663 138.642 39.5011C137.378 38.8358 136.314 37.9378 135.449 36.8069C134.584 35.676 134.019 34.412 133.752 33.015V30.3707C133.752 28.4748 134.102 26.5623 134.8 24.6331C135.499 22.7039 136.463 20.9244 137.694 19.2946C138.958 17.6648 140.438 16.3676 142.134 15.403C143.864 14.4051 145.727 13.9062 147.722 13.9062C148.986 13.9062 150.2 14.1224 151.365 14.5548C152.562 14.9872 153.626 15.4861 154.558 16.0516C154.757 14.6546 155.007 13.69 155.306 13.1578C155.605 12.6256 156.121 12.3595 156.853 12.3595C157.418 12.3595 157.817 12.5425 158.05 12.9084C158.283 13.241 158.399 13.8397 158.399 14.7045C158.399 16.7002 158.35 18.6626 158.25 20.5918C158.183 22.4877 158.15 24.4335 158.15 26.4292C158.15 28.0258 158.233 29.6722 158.399 31.3686C158.599 33.0649 158.699 34.6948 158.699 36.2581C158.699 36.757 158.699 37.2559 158.699 37.7548C158.732 38.2538 158.649 38.6695 158.449 39.0021C158.283 39.3015 157.917 39.4512 157.352 39.4512C156.553 39.4512 155.955 39.0853 155.556 38.3535C155.19 37.5885 154.94 36.6738 154.807 35.6095C154.674 34.5451 154.541 33.5472 154.408 32.6159C154.075 33.514 153.51 34.3954 152.712 35.2602C151.947 36.125 151.165 36.8734 150.367 37.5054C149.602 38.1041 149.003 38.5365 148.571 38.8026C148.171 39.0354 148.171 39.0021 148.571 38.7028C147.839 39.235 146.924 39.6674 145.826 40C144.762 40.3326 143.764 40.4989 142.833 40.4989ZM142.334 37.3557C143.831 37.3557 145.228 36.9233 146.525 36.0585C147.822 35.1937 148.953 34.0794 149.918 32.7157C150.916 31.352 151.681 29.9217 152.213 28.4249C152.778 26.9282 153.061 25.5478 153.061 24.2839C153.061 23.6519 152.978 22.9368 152.811 22.1385C152.678 21.3069 152.412 20.5087 152.013 19.7436C151.614 18.9786 151.065 18.3466 150.367 17.8477C149.701 17.3488 148.82 17.0993 147.722 17.0993C146.292 17.0993 144.928 17.565 143.631 18.4963C142.334 19.3944 141.17 20.5585 140.139 21.9888C139.141 23.3858 138.359 24.8327 137.794 26.3294C137.228 27.8262 136.946 29.1733 136.946 30.3707C136.946 31.2688 137.095 32.2667 137.395 33.3643C137.727 34.4619 138.276 35.4099 139.041 36.2082C139.839 36.9732 140.937 37.3557 142.334 37.3557ZM167.898 40.2495C167.399 40.2495 166.833 40.2162 166.201 40.1497C165.569 40.0832 165.021 39.9168 164.555 39.6508C164.089 39.3847 163.807 38.9523 163.707 38.3535C163.707 37.7548 163.723 37.2393 163.757 36.8069C163.79 36.3745 164.073 35.8423 164.605 35.2103C165.503 34.0794 166.567 32.8487 167.798 31.5183C169.029 30.1545 170.293 28.8074 171.59 27.477C172.92 26.1132 174.201 24.8327 175.431 23.6353C176.695 22.4378 177.793 21.4233 178.724 20.5918C179.19 20.1261 179.423 19.7104 179.423 19.3445C179.423 18.7458 178.824 18.4464 177.627 18.4464H174.783C173.852 18.4464 173.07 18.4631 172.438 18.4963C171.839 18.4963 171.257 18.513 170.692 18.5462C170.159 18.5795 169.528 18.646 168.796 18.7458C168.663 18.779 168.53 18.7957 168.397 18.7957C168.264 18.7957 168.131 18.7957 167.997 18.7957C167.698 18.7957 167.449 18.7292 167.249 18.5961C167.05 18.4298 166.95 18.1138 166.95 17.6481C166.95 16.8831 167.282 16.4175 167.948 16.2512C168.613 16.0516 169.245 15.9019 169.844 15.8021C170.409 15.7356 171.107 15.6857 171.939 15.6524C172.804 15.6192 173.735 15.6026 174.733 15.6026C175.698 15.6026 176.695 15.6358 177.727 15.7023C178.758 15.7356 179.722 15.8354 180.62 16.0017C181.784 16.2345 182.666 16.5838 183.265 17.0494C183.897 17.5151 184.213 18.1803 184.213 19.0451C184.213 19.7436 183.913 20.4255 183.314 21.0907C182.716 21.756 182.001 22.4378 181.169 23.1363C180.338 23.8016 179.556 24.5001 178.824 25.2318C178.026 25.9968 177.045 26.9614 175.881 28.1256C174.716 29.2897 173.569 30.4705 172.438 31.6679C171.307 32.8321 170.409 33.8632 169.744 34.7613C169.511 35.0939 169.328 35.3766 169.195 35.6095C169.062 35.809 168.995 35.992 168.995 36.1583C168.995 36.3911 169.245 36.5075 169.744 36.5075C171.806 36.5075 173.752 36.4077 175.581 36.2082C177.444 35.9753 179.124 35.7924 180.62 35.6593C180.787 35.6261 180.953 35.6095 181.119 35.6095C181.286 35.6095 181.435 35.6095 181.568 35.6095C182.3 35.6095 182.915 35.7259 183.414 35.9587C183.946 36.1915 184.213 36.6406 184.213 37.3058C184.213 38.0043 183.913 38.5199 183.314 38.8525C182.749 39.1518 182.067 39.3514 181.269 39.4512C180.504 39.551 179.822 39.6341 179.223 39.7006C178.924 39.7006 178.292 39.7339 177.327 39.8004C176.396 39.867 175.315 39.9335 174.084 40C172.887 40.0665 171.723 40.1164 170.592 40.1497C169.461 40.2162 168.563 40.2495 167.898 40.2495ZM198.28 40.4989C196.783 40.4989 195.386 40.1663 194.089 39.5011C192.825 38.8358 191.761 37.9378 190.896 36.8069C190.031 35.676 189.466 34.412 189.199 33.015V30.3707C189.199 28.4748 189.549 26.5623 190.247 24.6331C190.946 22.7039 191.91 20.9244 193.141 19.2946C194.405 17.6648 195.885 16.3676 197.581 15.403C199.311 14.4051 201.174 13.9062 203.169 13.9062C204.433 13.9062 205.647 14.1224 206.812 14.5548C208.009 14.9872 209.073 15.4861 210.005 16.0516C210.204 14.6546 210.454 13.69 210.753 13.1578C211.052 12.6256 211.568 12.3595 212.3 12.3595C212.865 12.3595 213.264 12.5425 213.497 12.9084C213.73 13.241 213.846 13.8397 213.846 14.7045C213.846 16.7002 213.796 18.6626 213.697 20.5918C213.63 22.4877 213.597 24.4335 213.597 26.4292C213.597 28.0258 213.68 29.6722 213.846 31.3686C214.046 33.0649 214.146 34.6948 214.146 36.2581C214.146 36.757 214.146 37.2559 214.146 37.7548C214.179 38.2538 214.096 38.6695 213.896 39.0021C213.73 39.3015 213.364 39.4512 212.799 39.4512C212 39.4512 211.402 39.0853 211.003 38.3535C210.637 37.5885 210.387 36.6738 210.254 35.6095C210.121 34.5451 209.988 33.5472 209.855 32.6159C209.522 33.514 208.957 34.3954 208.159 35.2602C207.394 36.125 206.612 36.8734 205.814 37.5054C205.049 38.1041 204.45 38.5365 204.018 38.8026C203.618 39.0354 203.618 39.0021 204.018 38.7028C203.286 39.235 202.371 39.6674 201.273 40C200.209 40.3326 199.211 40.4989 198.28 40.4989ZM197.781 37.3557C199.278 37.3557 200.675 36.9233 201.972 36.0585C203.269 35.1937 204.4 34.0794 205.365 32.7157C206.363 31.352 207.128 29.9217 207.66 28.4249C208.225 26.9282 208.508 25.5478 208.508 24.2839C208.508 23.6519 208.425 22.9368 208.258 22.1385C208.125 21.3069 207.859 20.5087 207.46 19.7436C207.061 18.9786 206.512 18.3466 205.814 17.8477C205.148 17.3488 204.267 17.0993 203.169 17.0993C201.739 17.0993 200.375 17.565 199.078 18.4963C197.781 19.3944 196.617 20.5585 195.586 21.9888C194.588 23.3858 193.806 24.8327 193.241 26.3294C192.675 27.8262 192.393 29.1733 192.393 30.3707C192.393 31.2688 192.542 32.2667 192.842 33.3643C193.174 34.4619 193.723 35.4099 194.488 36.2082C195.286 36.9732 196.384 37.3557 197.781 37.3557Z" fill="#43C453"/>
</svg>
